<mxfile host="app.diagrams.net" modified="2024-07-01T15:09:57.211Z" agent="Mozilla/5.0 (Macintosh; Intel Mac OS X 10_15_7) AppleWebKit/537.36 (KHTML, like Gecko) Chrome/126.0.0.0 Safari/537.36" etag="pT_Idw9s6L0f6oIbYreU" version="24.6.4" type="github">
  <diagram name="Page-1" id="9YZQeC7lukbSuyksMz9J">
    <mxGraphModel dx="954" dy="501" grid="1" gridSize="10" guides="1" tooltips="1" connect="1" arrows="1" fold="1" page="1" pageScale="1" pageWidth="827" pageHeight="1169" math="0" shadow="0">
      <root>
        <mxCell id="0" />
        <mxCell id="1" parent="0" />
        <mxCell id="aMP9pCNw0gF_knRommP5-4" style="edgeStyle=orthogonalEdgeStyle;rounded=0;orthogonalLoop=1;jettySize=auto;html=1;exitX=1;exitY=0.5;exitDx=0;exitDy=0;entryX=0;entryY=0.5;entryDx=0;entryDy=0;" edge="1" parent="1" source="aMP9pCNw0gF_knRommP5-1" target="aMP9pCNw0gF_knRommP5-2">
          <mxGeometry relative="1" as="geometry" />
        </mxCell>
        <mxCell id="aMP9pCNw0gF_knRommP5-1" value="Seed URLs" style="rounded=1;whiteSpace=wrap;html=1;" vertex="1" parent="1">
          <mxGeometry x="40" y="120" width="100" height="60" as="geometry" />
        </mxCell>
        <mxCell id="aMP9pCNw0gF_knRommP5-8" style="edgeStyle=orthogonalEdgeStyle;rounded=0;orthogonalLoop=1;jettySize=auto;html=1;exitX=1;exitY=0.5;exitDx=0;exitDy=0;entryX=0;entryY=0.5;entryDx=0;entryDy=0;" edge="1" parent="1" source="aMP9pCNw0gF_knRommP5-2" target="aMP9pCNw0gF_knRommP5-6">
          <mxGeometry relative="1" as="geometry" />
        </mxCell>
        <mxCell id="aMP9pCNw0gF_knRommP5-2" value="URL Frontier" style="rounded=1;whiteSpace=wrap;html=1;" vertex="1" parent="1">
          <mxGeometry x="180" y="120" width="110" height="60" as="geometry" />
        </mxCell>
        <mxCell id="aMP9pCNw0gF_knRommP5-5" value="1" style="text;html=1;align=center;verticalAlign=middle;resizable=0;points=[];autosize=1;strokeColor=none;fillColor=none;" vertex="1" parent="1">
          <mxGeometry x="140" y="120" width="30" height="30" as="geometry" />
        </mxCell>
        <mxCell id="aMP9pCNw0gF_knRommP5-10" style="edgeStyle=orthogonalEdgeStyle;rounded=0;orthogonalLoop=1;jettySize=auto;html=1;exitX=0.5;exitY=0;exitDx=0;exitDy=0;entryX=0.5;entryY=1;entryDx=0;entryDy=0;" edge="1" parent="1" source="aMP9pCNw0gF_knRommP5-6" target="aMP9pCNw0gF_knRommP5-9">
          <mxGeometry relative="1" as="geometry" />
        </mxCell>
        <mxCell id="aMP9pCNw0gF_knRommP5-16" style="edgeStyle=orthogonalEdgeStyle;rounded=0;orthogonalLoop=1;jettySize=auto;html=1;exitX=1;exitY=0.5;exitDx=0;exitDy=0;entryX=0;entryY=0.5;entryDx=0;entryDy=0;" edge="1" parent="1" source="aMP9pCNw0gF_knRommP5-6" target="aMP9pCNw0gF_knRommP5-13">
          <mxGeometry relative="1" as="geometry" />
        </mxCell>
        <mxCell id="aMP9pCNw0gF_knRommP5-6" value="HTML Downloader" style="rounded=1;whiteSpace=wrap;html=1;" vertex="1" parent="1">
          <mxGeometry x="320" y="120" width="110" height="60" as="geometry" />
        </mxCell>
        <mxCell id="aMP9pCNw0gF_knRommP5-9" value="DNS Resolver" style="rounded=1;whiteSpace=wrap;html=1;" vertex="1" parent="1">
          <mxGeometry x="320" y="20" width="110" height="60" as="geometry" />
        </mxCell>
        <mxCell id="aMP9pCNw0gF_knRommP5-11" value="2" style="text;html=1;align=center;verticalAlign=middle;resizable=0;points=[];autosize=1;strokeColor=none;fillColor=none;" vertex="1" parent="1">
          <mxGeometry x="290" y="120" width="30" height="30" as="geometry" />
        </mxCell>
        <mxCell id="aMP9pCNw0gF_knRommP5-12" value="3 - Get IP Address for the URLS" style="text;html=1;align=center;verticalAlign=middle;resizable=0;points=[];autosize=1;strokeColor=none;fillColor=none;" vertex="1" parent="1">
          <mxGeometry x="370" y="88" width="190" height="30" as="geometry" />
        </mxCell>
        <mxCell id="aMP9pCNw0gF_knRommP5-17" style="edgeStyle=orthogonalEdgeStyle;rounded=0;orthogonalLoop=1;jettySize=auto;html=1;exitX=1;exitY=0.5;exitDx=0;exitDy=0;entryX=0;entryY=0.5;entryDx=0;entryDy=0;" edge="1" parent="1" source="aMP9pCNw0gF_knRommP5-13" target="aMP9pCNw0gF_knRommP5-14">
          <mxGeometry relative="1" as="geometry" />
        </mxCell>
        <mxCell id="aMP9pCNw0gF_knRommP5-13" value="Content Parser" style="rounded=1;whiteSpace=wrap;html=1;" vertex="1" parent="1">
          <mxGeometry x="450" y="120" width="110" height="60" as="geometry" />
        </mxCell>
        <mxCell id="aMP9pCNw0gF_knRommP5-23" style="edgeStyle=orthogonalEdgeStyle;rounded=0;orthogonalLoop=1;jettySize=auto;html=1;exitX=0.5;exitY=1;exitDx=0;exitDy=0;" edge="1" parent="1" source="aMP9pCNw0gF_knRommP5-14" target="aMP9pCNw0gF_knRommP5-22">
          <mxGeometry relative="1" as="geometry" />
        </mxCell>
        <mxCell id="aMP9pCNw0gF_knRommP5-14" value="Content Seen?&lt;div&gt;Hash Compare&lt;/div&gt;" style="rounded=1;whiteSpace=wrap;html=1;" vertex="1" parent="1">
          <mxGeometry x="590" y="120" width="110" height="60" as="geometry" />
        </mxCell>
        <mxCell id="aMP9pCNw0gF_knRommP5-15" value="Content Storage" style="shape=cylinder3;whiteSpace=wrap;html=1;boundedLbl=1;backgroundOutline=1;size=15;" vertex="1" parent="1">
          <mxGeometry x="615" width="60" height="80" as="geometry" />
        </mxCell>
        <mxCell id="aMP9pCNw0gF_knRommP5-18" style="edgeStyle=orthogonalEdgeStyle;rounded=0;orthogonalLoop=1;jettySize=auto;html=1;entryX=0.5;entryY=1;entryDx=0;entryDy=0;entryPerimeter=0;" edge="1" parent="1" source="aMP9pCNw0gF_knRommP5-14" target="aMP9pCNw0gF_knRommP5-15">
          <mxGeometry relative="1" as="geometry" />
        </mxCell>
        <mxCell id="aMP9pCNw0gF_knRommP5-19" value="4" style="text;html=1;align=center;verticalAlign=middle;resizable=0;points=[];autosize=1;strokeColor=none;fillColor=none;" vertex="1" parent="1">
          <mxGeometry x="425" y="118" width="30" height="30" as="geometry" />
        </mxCell>
        <mxCell id="aMP9pCNw0gF_knRommP5-20" value="5" style="text;html=1;align=center;verticalAlign=middle;resizable=0;points=[];autosize=1;strokeColor=none;fillColor=none;" vertex="1" parent="1">
          <mxGeometry x="560" y="120" width="30" height="30" as="geometry" />
        </mxCell>
        <mxCell id="aMP9pCNw0gF_knRommP5-21" value="6 - Save the new content to Disk" style="text;html=1;align=center;verticalAlign=middle;resizable=0;points=[];autosize=1;strokeColor=none;fillColor=none;" vertex="1" parent="1">
          <mxGeometry x="640" y="90" width="200" height="30" as="geometry" />
        </mxCell>
        <mxCell id="aMP9pCNw0gF_knRommP5-26" style="edgeStyle=orthogonalEdgeStyle;rounded=0;orthogonalLoop=1;jettySize=auto;html=1;exitX=0.5;exitY=1;exitDx=0;exitDy=0;" edge="1" parent="1" source="aMP9pCNw0gF_knRommP5-22" target="aMP9pCNw0gF_knRommP5-25">
          <mxGeometry relative="1" as="geometry" />
        </mxCell>
        <mxCell id="aMP9pCNw0gF_knRommP5-22" value="URL Extractor" style="rounded=1;whiteSpace=wrap;html=1;" vertex="1" parent="1">
          <mxGeometry x="585" y="240" width="120" height="60" as="geometry" />
        </mxCell>
        <mxCell id="aMP9pCNw0gF_knRommP5-24" value="7 - Extract all the URLS from the content" style="text;html=1;align=center;verticalAlign=middle;resizable=0;points=[];autosize=1;strokeColor=none;fillColor=none;" vertex="1" parent="1">
          <mxGeometry x="640" y="190" width="240" height="30" as="geometry" />
        </mxCell>
        <mxCell id="aMP9pCNw0gF_knRommP5-25" value="URL Filter" style="rounded=1;whiteSpace=wrap;html=1;" vertex="1" parent="1">
          <mxGeometry x="585" y="340" width="120" height="60" as="geometry" />
        </mxCell>
        <mxCell id="aMP9pCNw0gF_knRommP5-27" value="8 - Check for broken / malicious links" style="text;html=1;align=center;verticalAlign=middle;resizable=0;points=[];autosize=1;strokeColor=none;fillColor=none;" vertex="1" parent="1">
          <mxGeometry x="640" y="300" width="220" height="30" as="geometry" />
        </mxCell>
        <mxCell id="aMP9pCNw0gF_knRommP5-37" style="edgeStyle=orthogonalEdgeStyle;rounded=0;orthogonalLoop=1;jettySize=auto;html=1;entryX=0.5;entryY=1;entryDx=0;entryDy=0;" edge="1" parent="1" source="aMP9pCNw0gF_knRommP5-28" target="aMP9pCNw0gF_knRommP5-2">
          <mxGeometry relative="1" as="geometry">
            <mxPoint x="240" y="190" as="targetPoint" />
          </mxGeometry>
        </mxCell>
        <mxCell id="aMP9pCNw0gF_knRommP5-39" style="edgeStyle=orthogonalEdgeStyle;rounded=0;orthogonalLoop=1;jettySize=auto;html=1;exitX=1;exitY=0.5;exitDx=0;exitDy=0;" edge="1" parent="1" source="aMP9pCNw0gF_knRommP5-28" target="aMP9pCNw0gF_knRommP5-38">
          <mxGeometry relative="1" as="geometry" />
        </mxCell>
        <mxCell id="aMP9pCNw0gF_knRommP5-28" value="URL Seen?" style="rounded=1;whiteSpace=wrap;html=1;" vertex="1" parent="1">
          <mxGeometry x="590" y="430" width="120" height="60" as="geometry" />
        </mxCell>
        <mxCell id="aMP9pCNw0gF_knRommP5-33" value="" style="endArrow=classic;html=1;rounded=0;" edge="1" parent="1">
          <mxGeometry width="50" height="50" relative="1" as="geometry">
            <mxPoint x="644.5" y="400" as="sourcePoint" />
            <mxPoint x="645" y="430" as="targetPoint" />
          </mxGeometry>
        </mxCell>
        <mxCell id="aMP9pCNw0gF_knRommP5-34" value="9" style="text;html=1;align=center;verticalAlign=middle;resizable=0;points=[];autosize=1;strokeColor=none;fillColor=none;" vertex="1" parent="1">
          <mxGeometry x="655" y="398" width="30" height="30" as="geometry" />
        </mxCell>
        <mxCell id="aMP9pCNw0gF_knRommP5-38" value="URL Storage" style="shape=cylinder3;whiteSpace=wrap;html=1;boundedLbl=1;backgroundOutline=1;size=15;" vertex="1" parent="1">
          <mxGeometry x="790" y="470" width="60" height="80" as="geometry" />
        </mxCell>
        <mxCell id="aMP9pCNw0gF_knRommP5-40" value="10 - Save the unseen urls" style="text;html=1;align=center;verticalAlign=middle;resizable=0;points=[];autosize=1;strokeColor=none;fillColor=none;" vertex="1" parent="1">
          <mxGeometry x="705" y="430" width="160" height="30" as="geometry" />
        </mxCell>
        <mxCell id="aMP9pCNw0gF_knRommP5-41" value="11 - Pass the new URLs for further crawling - recursive" style="text;html=1;align=center;verticalAlign=middle;resizable=0;points=[];autosize=1;strokeColor=none;fillColor=none;" vertex="1" parent="1">
          <mxGeometry x="255" y="418" width="310" height="30" as="geometry" />
        </mxCell>
      </root>
    </mxGraphModel>
  </diagram>
</mxfile>
